<svg xmlns="http://www.w3.org/2000/svg" xmlns:xlink="http://www.w3.org/1999/xlink" height="3416" viewBox="0 0 656 3416" width="656"><svg height="224" viewBox="0 0 486 168" width="648" x="4" y="4"><path d="M0 840 l0 -840 835 0 835 0 0 840 0 840 -835 0 -835 0 0 -840z m498 273 l2 -373 238 -2 237 -3 3 -204 c1 -113 -1 -208 -6 -213 -10 -10 -777 -12 -792 -3 -11 7 -14 1158 -3 1169 4 3 77 5 162 4 l156 -3 3 -372z m992 -358 l0 -585 -162 2 -163 3 -3 373 -2 372 -240 0 -240 0 0 210 0 210 405 0 405 0 0 -585z" transform="matrix(.1 0 0 -.1 0 168)"/><path d="M2060 1315 l0 -366 93 3 92 3 3 148 c1 81 5 147 9 147 11 0 43 -43 43 -60 0 -9 7 -25 15 -36 8 -10 15 -27 15 -36 0 -9 7 -30 15 -47 8 -17 22 -45 30 -62 8 -17 15 -37 15 -45 0 -12 18 -14 103 -12 l102 3 3 363 2 362 -105 0 -105 0 0 -155 c0 -131 -2 -155 -15 -155 -8 0 -15 9 -15 19 0 11 -8 34 -17 53 -9 18 -22 45 -30 60 -7 14 -13 35 -13 46 0 11 -7 25 -15 32 -8 7 -15 20 -15 30 0 10 -7 23 -15 30 -8 7 -15 19 -15 26 0 11 -20 14 -90 14 l-90 0 0 -365z" transform="matrix(.1 0 0 -.1 0 168)"/><path d="M2955 1660 c-5 -15 -15 -20 -44 -20 -22 0 -44 -6 -51 -15 -7 -8 -18 -15 -25 -15 -8 0 -24 -17 -37 -37 -22 -37 -23 -45 -23 -263 0 -218 1 -226 23 -262 13 -21 29 -38 37 -38 7 0 18 -7 25 -15 7 -8 27 -15 45 -15 18 0 38 -7 45 -15 18 -22 185 -22 194 0 3 9 19 15 41 15 34 0 45 7 107 68 l28 27 0 235 0 236 -30 29 c-56 56 -70 65 -106 65 -27 0 -37 5 -41 20 -5 18 -14 20 -93 20 -80 0 -89 -2 -95 -20z m120 -350 l0 -235 -26 -3 c-42 -5 -49 27 -49 238 0 211 7 243 49 238 l26 -3 0 -235z" transform="matrix(.1 0 0 -.1 0 168)"/><path d="M2190 694 c-14 -7 -34 -14 -45 -14 -32 0 -74 -34 -95 -75 -25 -48 -26 -126 -3 -163 23 -37 81 -92 98 -92 8 0 16 -4 19 -8 3 -5 39 -26 80 -47 102 -52 118 -70 114 -131 l-3 -49 -40 0 -40 0 -5 70 -5 70 -110 0 c-109 0 -110 0 -113 -24 -2 -14 2 -52 9 -85 16 -74 60 -120 123 -131 80 -13 238 -17 249 -6 6 6 28 11 49 11 21 0 38 5 38 10 0 6 11 15 25 22 18 8 29 26 40 64 27 94 -5 210 -65 237 -8 4 -28 16 -45 26 -16 11 -67 38 -111 60 -63 32 -84 48 -94 71 -17 42 2 80 40 80 33 0 47 -15 52 -55 l3 -30 105 0 105 0 3 37 c6 67 -47 137 -103 138 -16 0 -43 7 -59 15 -37 19 -181 19 -216 -1z" transform="matrix(.1 0 0 -.1 0 168)"/><path d="M2920 695 c-7 -8 -27 -15 -45 -15 -18 0 -38 -7 -45 -15 -7 -8 -18 -15 -25 -15 -8 0 -24 -17 -37 -37 -22 -37 -23 -45 -23 -263 0 -218 1 -226 23 -262 13 -21 29 -38 37 -38 7 0 18 -7 25 -15 7 -9 29 -15 51 -15 22 0 39 -4 39 -10 0 -13 187 -13 195 0 3 6 22 10 41 10 33 0 44 7 106 68 l28 27 0 235 0 236 -30 29 c-56 56 -70 65 -105 65 -22 0 -38 6 -41 15 -5 12 -25 15 -94 15 -66 0 -91 -4 -100 -15z m125 -345 l0 -235 -26 -3 c-42 -5 -49 27 -49 238 0 211 7 243 49 238 l26 -3 0 -235z" transform="matrix(.1 0 0 -.1 0 168)"/><path d="M3676 695 c-3 -10 -19 -15 -44 -15 -23 0 -45 -6 -52 -15 -7 -8 -18 -15 -24 -15 -7 0 -23 -15 -37 -32 -24 -33 -24 -35 -24 -263 0 -212 2 -233 20 -263 25 -42 76 -72 121 -72 19 0 34 -4 34 -10 0 -6 40 -10 99 -10 56 0 103 4 106 10 3 6 21 10 39 10 19 0 39 7 46 15 7 8 18 15 24 15 28 1 54 48 70 132 10 48 15 92 11 98 -10 15 -235 13 -236 -2 0 -7 0 -37 1 -66 2 -66 -19 -102 -58 -102 -44 0 -52 39 -52 240 0 198 9 240 50 240 46 0 55 -14 57 -92 1 -40 2 -77 3 -81 0 -4 53 -6 118 -5 115 3 117 3 120 27 5 35 -29 172 -48 190 -28 29 -69 51 -92 51 -13 0 -36 7 -52 15 -40 21 -192 21 -200 0z" transform="matrix(.1 0 0 -.1 0 168)"/><path d="M4250 355 l0 -355 110 0 110 0 0 142 0 141 25 -23 c15 -14 25 -35 25 -51 0 -14 7 -32 15 -39 8 -7 15 -22 15 -34 0 -11 7 -30 15 -40 8 -11 15 -30 15 -41 0 -44 28 -55 138 -55 91 0 102 2 102 18 0 9 -7 26 -15 36 -8 11 -15 28 -15 37 0 17 -6 31 -44 107 -9 19 -16 41 -16 50 0 9 -7 26 -15 36 -8 11 -15 30 -15 42 0 12 -7 27 -15 34 -8 7 -15 23 -15 35 0 12 7 28 15 35 8 7 15 20 15 29 0 9 7 25 15 35 8 11 15 27 15 37 0 9 7 22 15 29 8 7 15 20 15 30 0 10 7 23 15 30 8 7 15 21 15 31 0 10 8 22 18 28 36 20 -3 32 -99 29 -88 -3 -94 -4 -97 -25 -2 -12 -10 -27 -18 -33 -8 -7 -14 -20 -14 -30 0 -10 -7 -23 -15 -30 -8 -7 -15 -20 -15 -30 0 -10 -7 -23 -15 -30 -8 -7 -15 -20 -15 -30 0 -10 -11 -25 -25 -34 l-24 -16 -3 127 -3 128 -107 3 -108 3 0 -356z" transform="matrix(.1 0 0 -.1 0 168)"/></svg><svg height="482.667" viewBox="0 0 300 362" width="400" x="4" y="232"><path d="M1270 3587 c0 -30 -5 -37 -52 -62 -29 -15 -77 -45 -105 -67 -72 -53 -206 -223 -233 -295 -12 -32 -37 -86 -56 -121 -43 -76 -62 -140 -73 -237 -11 -97 -35 -145 -86 -170 -37 -18 -62 -20 -296 -22 -140 0 -281 -4 -312 -8 l-57 -7 0 -1299 0 -1299 1500 0 1500 0 0 1299 0 1298 -57 7 c-32 4 -158 7 -279 6 -229 -1 -260 4 -301 42 -25 23 -68 146 -112 320 -20 78 -40 133 -59 160 -16 24 -44 72 -62 108 -46 92 -153 204 -253 265 -73 44 -82 54 -85 83 l-3 32 -260 0 -259 0 0 -33z m373 -366 c84 -52 199 -207 228 -306 11 -38 32 -101 46 -138 30 -78 26 -106 -20 -141 -27 -20 -41 -21 -355 -24 -180 -2 -342 0 -360 3 -39 7 -72 54 -72 101 0 46 30 125 101 262 56 108 73 131 133 185 38 34 83 68 100 74 45 18 159 9 199 -16z m-1055 -992 c42 -27 46 -45 43 -241 -2 -207 4 -234 59 -263 35 -18 179 -20 229 -2 66 23 74 47 83 243 9 200 19 237 70 259 46 19 851 25 885 7 46 -25 56 -65 62 -254 5 -157 8 -180 26 -204 26 -35 77 -52 175 -60 69 -6 82 -4 112 14 59 36 63 56 61 246 -2 95 2 184 7 201 20 61 113 85 176 46 23 -14 34 -30 41 -62 11 -45 8 -1682 -2 -1727 -3 -12 -20 -31 -38 -42 -31 -19 -56 -20 -1075 -20 -1126 0 -1084 -2 -1113 51 -17 33 -13 1721 5 1763 12 28 32 44 76 60 22 8 97 -2 118 -15z" transform="matrix(.1 0 0 -.1 0 362)"/></svg><svg height="410.667" viewBox="0 0 300 308" width="400" x="4" y="719"><path d="M1041 2668 c-43 -90 -151 -309 -239 -488 -87 -179 -205 -419 -262 -535 -56 -115 -140 -287 -186 -380 -46 -94 -84 -176 -84 -183 0 -12 535 -282 559 -282 6 0 11 -4 11 -10 0 -5 5 -10 12 -10 6 0 100 -43 207 -96 108 -53 288 -142 401 -196 291 -142 514 -251 521 -254 4 -2 20 24 37 59 75 152 382 780 467 952 307 628 355 729 351 741 -3 7 -38 28 -78 47 -82 39 -468 227 -843 412 -137 67 -335 164 -440 215 -104 50 -226 109 -269 131 -44 21 -81 39 -82 39 -2 0 -39 -73 -83 -162z m313 -152 c72 -35 253 -123 401 -196 149 -73 367 -179 485 -237 317 -154 360 -176 360 -181 0 -5 -48 -104 -265 -547 -377 -771 -429 -875 -435 -875 -8 0 -264 124 -760 367 -179 87 -394 192 -477 233 -84 41 -153 77 -153 81 0 3 66 141 146 305 80 165 196 400 256 524 61 124 150 307 199 408 49 100 94 182 100 182 7 0 71 -29 143 -64z" transform="matrix(.1 0 0 -.1 0 308)"/></svg><svg height="400" viewBox="0 0 300 300" width="400" x="4" y="1134"><path d="M3100 5933 c0 -74 12 -66 -280 -192 -283 -122 -582 -376 -788 -668 -137 -195 -170 -257 -221 -413 -26 -82 -72 -215 -100 -295 -107 -298 -102 -725 12 -1032 34 -90 74 -208 91 -263 17 -55 61 -155 98 -222 150 -269 180 -224 -873 -1318 -292 -304 -520 -541 -749 -781 -142 -148 -192 -189 -235 -189 -54 0 -55 -3 -55 -120 l0 -120 63 0 c100 0 277 -161 277 -252 l0 -68 130 0 c130 0 130 0 130 57 0 42 28 86 105 165 206 213 631 656 1005 1049 681 715 735 767 805 791 90 29 221 -4 341 -86 160 -110 342 -155 834 -207 275 -29 872 71 1040 175 55 34 168 96 250 139 233 120 634 528 725 737 155 359 156 360 228 360 l67 0 0 690 0 690 -70 0 c-76 0 -125 71 -198 290 -18 55 -62 138 -97 183 -36 46 -102 132 -147 190 -141 182 -457 432 -630 498 -255 98 -328 144 -334 214 l-7 65 -708 0 -709 0 0 -67z m1116 -674 c140 -33 279 -76 308 -95 168 -109 393 -298 441 -368 30 -45 84 -118 121 -164 191 -239 261 -755 158 -1177 -43 -173 -56 -199 -217 -427 -91 -130 -359 -377 -455 -419 -34 -15 -147 -64 -250 -109 -600 -263 -1405 4 -1756 582 -45 76 -101 163 -123 193 -114 162 -156 780 -68 1025 167 467 588 858 1035 959 110 25 209 48 220 52 85 26 358 3 586 -52z" transform="matrix(.05 0 0 -.05 0 300)"/></svg><svg height="382.667" viewBox="0 0 300 287" width="400" x="4" y="1538"><path d="M260 5674 c0 -90 -105 -194 -196 -194 l-64 0 0 -150 0 -150 65 0 c56 0 99 -33 306 -235 290 -283 662 -642 1208 -1165 224 -214 474 -455 556 -535 81 -80 156 -145 165 -145 39 0 103 -143 103 -230 0 -87 -64 -230 -103 -230 -9 0 -84 -65 -165 -145 -81 -80 -331 -320 -555 -535 -514 -492 -901 -865 -1209 -1165 -207 -202 -250 -235 -306 -235 l-65 0 0 -150 0 -150 66 0 c90 0 194 -105 194 -196 l0 -64 160 0 160 0 0 61 c0 51 30 89 185 235 102 95 307 290 455 434 149 143 347 331 440 418 215 201 359 337 1093 1037 234 223 269 221 527 -29 262 -254 560 -537 900 -856 182 -171 452 -427 600 -570 149 -143 353 -339 455 -434 155 -146 185 -184 185 -235 l0 -61 160 0 160 0 0 66 c0 90 105 194 196 194 l64 0 0 150 0 150 -65 0 c-56 0 -99 33 -306 235 -308 300 -695 673 -1209 1165 -224 215 -474 455 -555 535 -81 80 -156 145 -165 145 -39 0 -103 143 -103 230 0 87 64 230 103 230 9 0 84 65 165 145 81 80 331 321 555 535 514 492 901 865 1209 1165 207 202 250 235 306 235 l65 0 0 150 0 150 -66 0 c-90 0 -194 105 -194 196 l0 64 -160 0 -160 0 0 -61 c0 -51 -30 -89 -185 -235 -102 -95 -306 -291 -455 -434 -148 -143 -418 -399 -600 -570 -340 -319 -638 -602 -900 -856 -266 -258 -294 -258 -560 0 -262 254 -560 537 -900 856 -181 171 -451 427 -600 570 -148 143 -353 339 -455 434 -155 146 -185 184 -185 235 l0 61 -160 0 -160 0 0 -66z" transform="matrix(.05 0 0 -.05 0 287)"/></svg><svg height="333.333" viewBox="0 0 300 250" width="400" x="4" y="1925"><path d="M468 2468 c-3 -30 -10 -37 -91 -79 -108 -56 -214 -156 -259 -244 -40 -78 -55 -95 -90 -95 l-28 0 0 -280 0 -280 35 0 c19 0 35 -1 35 -3 0 -2 20 -52 44 -110 25 -60 64 -134 91 -169 26 -34 54 -76 62 -93 9 -16 37 -55 63 -85 25 -30 54 -66 63 -80 22 -32 301 -313 386 -388 170 -152 221 -193 361 -297 37 -27 95 -70 128 -95 33 -25 79 -58 101 -73 35 -24 41 -34 41 -63 l0 -34 95 0 95 0 0 28 c0 31 26 60 104 112 27 18 57 41 67 51 9 9 39 32 66 51 63 43 171 130 242 194 31 28 70 60 86 73 38 29 280 267 367 363 84 91 194 232 215 272 8 17 34 56 58 86 23 30 54 87 68 125 46 129 57 145 94 145 l33 0 0 285 0 285 -33 0 c-35 0 -34 -1 -87 95 -43 78 -151 181 -240 230 -65 36 -70 41 -70 72 l0 33 -300 0 -300 0 0 -31 c0 -27 -6 -33 -55 -55 -31 -13 -83 -33 -118 -45 -34 -11 -87 -40 -118 -64 -119 -93 -213 -95 -334 -5 -44 33 -93 58 -148 75 -126 41 -157 60 -157 95 l0 30 -284 0 -285 0 -3 -32z m1952 -329 c53 -16 77 -31 124 -77 69 -67 91 -107 107 -196 23 -121 -16 -301 -85 -394 -18 -26 -45 -71 -60 -100 -15 -29 -41 -69 -59 -90 -18 -20 -53 -64 -77 -97 -102 -138 -601 -606 -754 -706 -46 -31 -69 -39 -104 -39 -55 0 -138 42 -213 109 -30 26 -74 62 -99 81 -135 103 -488 444 -570 550 -19 25 -51 64 -71 88 -21 24 -50 66 -65 95 -15 28 -44 77 -65 107 -51 72 -82 185 -83 305 -1 129 17 175 104 261 81 79 97 89 182 109 80 19 143 19 243 0 110 -21 167 -41 223 -79 26 -18 72 -44 102 -59 30 -15 86 -52 124 -82 38 -31 91 -67 119 -81 80 -41 114 -29 266 94 30 24 81 57 114 73 32 17 79 45 105 63 45 32 128 59 267 85 65 12 144 5 225 -20z" transform="matrix(.1 0 0 -.1 0 250)"/></svg><svg height="284" viewBox="0 0 255 213" width="340" x="4" y="2263"><path d="M1085 2044 c-111 -27 -170 -48 -254 -91 -316 -165 -511 -485 -511 -838 0 -350 194 -671 505 -835 281 -148 599 -148 880 0 311 164 505 485 505 835 0 257 -106 504 -292 681 -136 129 -277 203 -474 248 -89 20 -276 20 -359 0z m319 -180 c319 -72 538 -291 610 -610 68 -306 -109 -667 -398 -812 -245 -122 -457 -122 -702 0 -289 145 -466 506 -398 812 30 132 81 241 158 337 176 218 475 330 730 273z" transform="matrix(.1 0 0 -.1 0 213)"/></svg><svg height="268.832" viewBox="0 0 269 269" width="268.832" x="4" y="2551"><path d="M265.171,125.577l-80-80c-4.881-4.881-12.797-4.881-17.678,0c-4.882,4.882-4.882,12.796,0,17.678l58.661,58.661H12.5 c-6.903,0-12.5,5.597-12.5,12.5c0,6.902,5.597,12.5,12.5,12.5h213.654l-58.659,58.661c-4.882,4.882-4.882,12.796,0,17.678 c2.44,2.439,5.64,3.661,8.839,3.661s6.398-1.222,8.839-3.661l79.998-80C270.053,138.373,270.053,130.459,265.171,125.577z"/></svg><svg height="182.667" viewBox="0 0 133 137" width="177.333" x="4" y="2824"><path d="M460 1817 c-226 -463 -410 -850 -410 -860 0 -11 373 -202 830 -425 l830 -406 165 332 c91 183 281 567 423 854 l257 523 -830 407 c-456 225 -835 410 -842 413 -7 2 -197 -375 -423 -838z m1172 272 c373 -182 676 -337 674 -345 -13 -50 -670 -1374 -682 -1374 -8 1 -194 90 -414 198 -220 108 -519 254 -665 325 -146 70 -265 134 -265 142 0 8 120 258 266 555 147 297 297 605 333 685 37 80 69 145 71 145 3 0 309 -149 682 -331z" transform="matrix(.05 0 0 -.05 0 137)"/></svg><svg height="130.667" viewBox="0 0 105 98" width="140" x="4" y="3011"><path d="M485 1057 c-157 -453 -283 -825 -280 -828 13 -11 1775 381 1770 394 -7 21 -1183 1257 -1195 1257 -5 -1 -138 -371 -295 -823z m813 105 c321 -335 440 -471 420 -482 -49 -25 -1297 -287 -1310 -275 -10 10 116 383 397 1181 26 73 -17 109 493 -424z" transform="matrix(.05 0 0 -.05 0 98)"/></svg><svg height="58.333" viewBox="0 0 47 59" width="47" x="4" y="3146"><path fill="#FFF" d="M3 19.333H44V55.333H3z"/><defs><path id="SVGID_1_" d="M0 0H47V58.333H0z"/></defs><clipPath id="SVGID_2_"><use xlink:href="#SVGID_1_" overflow="visible"/></clipPath><path clip-path="url(#SVGID_2_)" fill="none" stroke="#1D1D1B" stroke-width="6" stroke-miterlimit="10" d="M3 19.333H44V55.333H3z"/><path clip-path="url(#SVGID_2_)" fill="none" stroke="#1D1D1B" stroke-width="6" stroke-miterlimit="10" d="M12.729,30.833 c0,0-0.829-27.833,11.23-27.833c12.058,0,10.789,27.833,10.789,27.833"/></svg><svg height="58.333" viewBox="0 0 47 59" width="47" x="4" y="3209"><path fill="#FFF" d="M3 19.333H44V55.333H3z"/><defs><path id="SVGID_1_" d="M0 0H47V58.333H0z"/></defs><clipPath id="SVGID_2_"><use xlink:href="#SVGID_1_" overflow="visible"/></clipPath><path clip-path="url(#SVGID_2_)" fill="none" stroke="#1D1D1B" stroke-width="6" stroke-miterlimit="10" d="M3 19.333H44V55.333H3z"/><path clip-path="url(#SVGID_2_)" fill="none" stroke="#1D1D1B" stroke-width="6" stroke-miterlimit="10" d="M12.729,30.833 c0,0-0.829-27.833,11.23-27.833c12.058,0,10.789,27.833,10.789,27.833"/></svg><svg height="45.859" viewBox="0 0 55 46" width="54.185" x="4" y="3272"><defs><path id="SVGID_1_" d="M0 0H54.185V45.859H0z"/></defs><clipPath id="SVGID_2_"><use xlink:href="#SVGID_1_" overflow="visible"/></clipPath><path clip-path="url(#SVGID_2_)" fill="none" stroke="#1D1D1B" stroke-width="6" stroke-miterlimit="10" d="M27.221,9.31 c0,0,12.594-11.079,20.531-3.877c14.264,12.944-20.531,36.801-20.531,36.801S-7.991,18.627,6.498,5.723 C14.901-1.761,27.221,9.31,27.221,9.31z"/></svg><svg height="53.814" viewBox="0 0 53 54" width="52.522" x="4" y="3322"><defs><path id="SVGID_1_" d="M0 0H52.522V53.814H0z"/></defs><clipPath id="SVGID_2_"><use xlink:href="#SVGID_1_" overflow="visible"/></clipPath><circle clip-path="url(#SVGID_2_)" fill="none" stroke="#1D1D1B" stroke-width="6" stroke-miterlimit="10" cx="33.397" cy="19.125" r="16.125"/><path clip-path="url(#SVGID_2_)" fill="none" stroke="#1D1D1B" stroke-width="6" stroke-miterlimit="10" d="M22.773 29.833L2.188 51.762"/></svg><svg height="32" viewBox="0 0 32 32" width="32" x="4" y="3380"><path fill="#444" d="M18.842 16l12.881-12.88c0.277-0.278 0.277-0.727 0-1.005l-1.837-1.838c-0.133-0.133-0.314-0.208-0.503-0.208s-0.37 0.075-0.503 0.208l-12.88 12.88-12.88-12.88c-0.267-0.267-0.739-0.267-1.005 0l-1.837 1.838c-0.278 0.278-0.278 0.727 0 1.005l12.88 12.88-12.88 12.88c-0.278 0.278-0.278 0.727 0 1.005l1.837 1.838c0.133 0.133 0.314 0.208 0.503 0.208s0.369-0.075 0.502-0.208l12.88-12.88 12.88 12.88c0.133 0.133 0.314 0.208 0.503 0.208s0.37-0.075 0.503-0.208l1.837-1.838c0.277-0.278 0.277-0.727 0-1.005l-12.881-12.88z"/></svg></svg>