<svg version="1" xmlns="http://www.w3.org/2000/svg" width="400" height="333.333" viewBox="0 0 300.000000 250.000000"><path d="M468 2468 c-3 -30 -10 -37 -91 -79 -108 -56 -214 -156 -259 -244 -40 -78 -55 -95 -90 -95 l-28 0 0 -280 0 -280 35 0 c19 0 35 -1 35 -3 0 -2 20 -52 44 -110 25 -60 64 -134 91 -169 26 -34 54 -76 62 -93 9 -16 37 -55 63 -85 25 -30 54 -66 63 -80 22 -32 301 -313 386 -388 170 -152 221 -193 361 -297 37 -27 95 -70 128 -95 33 -25 79 -58 101 -73 35 -24 41 -34 41 -63 l0 -34 95 0 95 0 0 28 c0 31 26 60 104 112 27 18 57 41 67 51 9 9 39 32 66 51 63 43 171 130 242 194 31 28 70 60 86 73 38 29 280 267 367 363 84 91 194 232 215 272 8 17 34 56 58 86 23 30 54 87 68 125 46 129 57 145 94 145 l33 0 0 285 0 285 -33 0 c-35 0 -34 -1 -87 95 -43 78 -151 181 -240 230 -65 36 -70 41 -70 72 l0 33 -300 0 -300 0 0 -31 c0 -27 -6 -33 -55 -55 -31 -13 -83 -33 -118 -45 -34 -11 -87 -40 -118 -64 -119 -93 -213 -95 -334 -5 -44 33 -93 58 -148 75 -126 41 -157 60 -157 95 l0 30 -284 0 -285 0 -3 -32z m1952 -329 c53 -16 77 -31 124 -77 69 -67 91 -107 107 -196 23 -121 -16 -301 -85 -394 -18 -26 -45 -71 -60 -100 -15 -29 -41 -69 -59 -90 -18 -20 -53 -64 -77 -97 -102 -138 -601 -606 -754 -706 -46 -31 -69 -39 -104 -39 -55 0 -138 42 -213 109 -30 26 -74 62 -99 81 -135 103 -488 444 -570 550 -19 25 -51 64 -71 88 -21 24 -50 66 -65 95 -15 28 -44 77 -65 107 -51 72 -82 185 -83 305 -1 129 17 175 104 261 81 79 97 89 182 109 80 19 143 19 243 0 110 -21 167 -41 223 -79 26 -18 72 -44 102 -59 30 -15 86 -52 124 -82 38 -31 91 -67 119 -81 80 -41 114 -29 266 94 30 24 81 57 114 73 32 17 79 45 105 63 45 32 128 59 267 85 65 12 144 5 225 -20z" transform="matrix(.1 0 0 -.1 0 250)"/></svg>