<?xml version="1.0" encoding="UTF-8" standalone="no"?>
<!DOCTYPE svg PUBLIC "-//W3C//DTD SVG 20010904//EN" "http://www.w3.org/TR/2001/REC-SVG-20010904/DTD/svg10.dtd">
<svg version="1.0" xmlns="http://www.w3.org/2000/svg" width="255.000000pt" height="213.000000pt" viewBox="0 0 255.000000 213.000000" preserveAspectRatio="xMidYMid meet">
<metadata>
Created by potrace 1.10, written by Peter Selinger 2001-2011
</metadata>
<g transform="translate(0.000000,213.000000) scale(0.100000,-0.100000)" fill="#000000" stroke="none">
<path d="M1085 2044 c-111 -27 -170 -48 -254 -91 -316 -165 -511 -485 -511 -838 0 -350 194 -671 505 -835 281 -148 599 -148 880 0 311 164 505 485 505 835 0 257 -106 504 -292 681 -136 129 -277 203 -474 248 -89 20 -276 20 -359 0z m319 -180 c319 -72 538 -291 610 -610 68 -306 -109 -667 -398 -812 -245 -122 -457 -122 -702 0 -289 145 -466 506 -398 812 30 132 81 241 158 337 176 218 475 330 730 273z"/>
</g>
</svg>