<?xml version="1.0" standalone="no"?>
<!DOCTYPE svg PUBLIC "-//W3C//DTD SVG 20010904//EN"
 "http://www.w3.org/TR/2001/REC-SVG-20010904/DTD/svg10.dtd">
<svg version="1.0" xmlns="http://www.w3.org/2000/svg"
 width="300.000000pt" height="362.000000pt" viewBox="0 0 300.000000 362.000000"
 preserveAspectRatio="xMidYMid meet">
<metadata>
Created by potrace 1.10, written by Peter Selinger 2001-2011
</metadata>
<g transform="translate(0.000000,362.000000) scale(0.100000,-0.100000)"
fill="#000000" stroke="none">
<path d="M1270 3587 c0 -30 -5 -37 -52 -62 -29 -15 -77 -45 -105 -67 -72 -53
-206 -223 -233 -295 -12 -32 -37 -86 -56 -121 -43 -76 -62 -140 -73 -237 -11
-97 -35 -145 -86 -170 -37 -18 -62 -20 -296 -22 -140 0 -281 -4 -312 -8 l-57
-7 0 -1299 0 -1299 1500 0 1500 0 0 1299 0 1298 -57 7 c-32 4 -158 7 -279 6
-229 -1 -260 4 -301 42 -25 23 -68 146 -112 320 -20 78 -40 133 -59 160 -16
24 -44 72 -62 108 -46 92 -153 204 -253 265 -73 44 -82 54 -85 83 l-3 32 -260
0 -259 0 0 -33z m373 -366 c84 -52 199 -207 228 -306 11 -38 32 -101 46 -138
30 -78 26 -106 -20 -141 -27 -20 -41 -21 -355 -24 -180 -2 -342 0 -360 3 -39
7 -72 54 -72 101 0 46 30 125 101 262 56 108 73 131 133 185 38 34 83 68 100
74 45 18 159 9 199 -16z m-1055 -992 c42 -27 46 -45 43 -241 -2 -207 4 -234
59 -263 35 -18 179 -20 229 -2 66 23 74 47 83 243 9 200 19 237 70 259 46 19
851 25 885 7 46 -25 56 -65 62 -254 5 -157 8 -180 26 -204 26 -35 77 -52 175
-60 69 -6 82 -4 112 14 59 36 63 56 61 246 -2 95 2 184 7 201 20 61 113 85
176 46 23 -14 34 -30 41 -62 11 -45 8 -1682 -2 -1727 -3 -12 -20 -31 -38 -42
-31 -19 -56 -20 -1075 -20 -1126 0 -1084 -2 -1113 51 -17 33 -13 1721 5 1763
12 28 32 44 76 60 22 8 97 -2 118 -15z"/>
</g>
</svg>
