<?xml version="1.0" standalone="no"?>
<!DOCTYPE svg PUBLIC "-//W3C//DTD SVG 20010904//EN"
 "http://www.w3.org/TR/2001/REC-SVG-20010904/DTD/svg10.dtd">
<svg version="1.0" xmlns="http://www.w3.org/2000/svg"
 width="300.000000pt" height="287.000000pt" viewBox="0 0 300.000000 287.000000"
 preserveAspectRatio="xMidYMid meet">
<metadata>
Created by potrace 1.10, written by Peter Selinger 2001-2011
</metadata>
<g transform="translate(0.000000,287.000000) scale(0.050000,-0.050000)"
fill="#000000" stroke="none">
<path d="M260 5674 c0 -90 -105 -194 -196 -194 l-64 0 0 -150 0 -150 65 0 c56
0 99 -33 306 -235 290 -283 662 -642 1208 -1165 224 -214 474 -455 556 -535
81 -80 156 -145 165 -145 39 0 103 -143 103 -230 0 -87 -64 -230 -103 -230 -9
0 -84 -65 -165 -145 -81 -80 -331 -320 -555 -535 -514 -492 -901 -865 -1209
-1165 -207 -202 -250 -235 -306 -235 l-65 0 0 -150 0 -150 66 0 c90 0 194
-105 194 -196 l0 -64 160 0 160 0 0 61 c0 51 30 89 185 235 102 95 307 290
455 434 149 143 347 331 440 418 215 201 359 337 1093 1037 234 223 269 221
527 -29 262 -254 560 -537 900 -856 182 -171 452 -427 600 -570 149 -143 353
-339 455 -434 155 -146 185 -184 185 -235 l0 -61 160 0 160 0 0 66 c0 90 105
194 196 194 l64 0 0 150 0 150 -65 0 c-56 0 -99 33 -306 235 -308 300 -695
673 -1209 1165 -224 215 -474 455 -555 535 -81 80 -156 145 -165 145 -39 0
-103 143 -103 230 0 87 64 230 103 230 9 0 84 65 165 145 81 80 331 321 555
535 514 492 901 865 1209 1165 207 202 250 235 306 235 l65 0 0 150 0 150 -66
0 c-90 0 -194 105 -194 196 l0 64 -160 0 -160 0 0 -61 c0 -51 -30 -89 -185
-235 -102 -95 -306 -291 -455 -434 -148 -143 -418 -399 -600 -570 -340 -319
-638 -602 -900 -856 -266 -258 -294 -258 -560 0 -262 254 -560 537 -900 856
-181 171 -451 427 -600 570 -148 143 -353 339 -455 434 -155 146 -185 184
-185 235 l0 61 -160 0 -160 0 0 -66z"/>
</g>
</svg>
