<?xml version="1.0" standalone="no"?>
<!DOCTYPE svg PUBLIC "-//W3C//DTD SVG 20010904//EN"
 "http://www.w3.org/TR/2001/REC-SVG-20010904/DTD/svg10.dtd">
<svg version="1.0" xmlns="http://www.w3.org/2000/svg"
 width="300.000000pt" height="308.000000pt" viewBox="0 0 300.000000 308.000000"
 preserveAspectRatio="xMidYMid meet">
<metadata>
Created by potrace 1.10, written by Peter Selinger 2001-2011
</metadata>
<g transform="translate(0.000000,308.000000) scale(0.100000,-0.100000)"
fill="#000000" stroke="none">
<path d="M1041 2668 c-43 -90 -151 -309 -239 -488 -87 -179 -205 -419 -262
-535 -56 -115 -140 -287 -186 -380 -46 -94 -84 -176 -84 -183 0 -12 535 -282
559 -282 6 0 11 -4 11 -10 0 -5 5 -10 12 -10 6 0 100 -43 207 -96 108 -53 288
-142 401 -196 291 -142 514 -251 521 -254 4 -2 20 24 37 59 75 152 382 780
467 952 307 628 355 729 351 741 -3 7 -38 28 -78 47 -82 39 -468 227 -843 412
-137 67 -335 164 -440 215 -104 50 -226 109 -269 131 -44 21 -81 39 -82 39 -2
0 -39 -73 -83 -162z m313 -152 c72 -35 253 -123 401 -196 149 -73 367 -179
485 -237 317 -154 360 -176 360 -181 0 -5 -48 -104 -265 -547 -377 -771 -429
-875 -435 -875 -8 0 -264 124 -760 367 -179 87 -394 192 -477 233 -84 41 -153
77 -153 81 0 3 66 141 146 305 80 165 196 400 256 524 61 124 150 307 199 408
49 100 94 182 100 182 7 0 71 -29 143 -64z"/>
</g>
</svg>
