<?xml version="1.0" standalone="no"?>
<!DOCTYPE svg PUBLIC "-//W3C//DTD SVG 20010904//EN"
 "http://www.w3.org/TR/2001/REC-SVG-20010904/DTD/svg10.dtd">
<svg version="1.0" xmlns="http://www.w3.org/2000/svg"
 width="486.000000pt" height="168.000000pt" viewBox="0 0 486.000000 168.000000"
 preserveAspectRatio="xMidYMid meet">
<metadata>
Created by potrace 1.10, written by Peter Selinger 2001-2011
</metadata>
<g transform="translate(0.000000,168.000000) scale(0.100000,-0.100000)"
fill="#000000" stroke="none">
<path d="M0 840 l0 -840 835 0 835 0 0 840 0 840 -835 0 -835 0 0 -840z m498
273 l2 -373 238 -2 237 -3 3 -204 c1 -113 -1 -208 -6 -213 -10 -10 -777 -12
-792 -3 -11 7 -14 1158 -3 1169 4 3 77 5 162 4 l156 -3 3 -372z m992 -358 l0
-585 -162 2 -163 3 -3 373 -2 372 -240 0 -240 0 0 210 0 210 405 0 405 0 0
-585z"/>
<path d="M2060 1315 l0 -366 93 3 92 3 3 148 c1 81 5 147 9 147 11 0 43 -43
43 -60 0 -9 7 -25 15 -36 8 -10 15 -27 15 -36 0 -9 7 -30 15 -47 8 -17 22 -45
30 -62 8 -17 15 -37 15 -45 0 -12 18 -14 103 -12 l102 3 3 363 2 362 -105 0
-105 0 0 -155 c0 -131 -2 -155 -15 -155 -8 0 -15 9 -15 19 0 11 -8 34 -17 53
-9 18 -22 45 -30 60 -7 14 -13 35 -13 46 0 11 -7 25 -15 32 -8 7 -15 20 -15
30 0 10 -7 23 -15 30 -8 7 -15 19 -15 26 0 11 -20 14 -90 14 l-90 0 0 -365z"/>
<path d="M2955 1660 c-5 -15 -15 -20 -44 -20 -22 0 -44 -6 -51 -15 -7 -8 -18
-15 -25 -15 -8 0 -24 -17 -37 -37 -22 -37 -23 -45 -23 -263 0 -218 1 -226 23
-262 13 -21 29 -38 37 -38 7 0 18 -7 25 -15 7 -8 27 -15 45 -15 18 0 38 -7 45
-15 18 -22 185 -22 194 0 3 9 19 15 41 15 34 0 45 7 107 68 l28 27 0 235 0
236 -30 29 c-56 56 -70 65 -106 65 -27 0 -37 5 -41 20 -5 18 -14 20 -93 20
-80 0 -89 -2 -95 -20z m120 -350 l0 -235 -26 -3 c-42 -5 -49 27 -49 238 0 211
7 243 49 238 l26 -3 0 -235z"/>
<path d="M2190 694 c-14 -7 -34 -14 -45 -14 -32 0 -74 -34 -95 -75 -25 -48
-26 -126 -3 -163 23 -37 81 -92 98 -92 8 0 16 -4 19 -8 3 -5 39 -26 80 -47
102 -52 118 -70 114 -131 l-3 -49 -40 0 -40 0 -5 70 -5 70 -110 0 c-109 0
-110 0 -113 -24 -2 -14 2 -52 9 -85 16 -74 60 -120 123 -131 80 -13 238 -17
249 -6 6 6 28 11 49 11 21 0 38 5 38 10 0 6 11 15 25 22 18 8 29 26 40 64 27
94 -5 210 -65 237 -8 4 -28 16 -45 26 -16 11 -67 38 -111 60 -63 32 -84 48
-94 71 -17 42 2 80 40 80 33 0 47 -15 52 -55 l3 -30 105 0 105 0 3 37 c6 67
-47 137 -103 138 -16 0 -43 7 -59 15 -37 19 -181 19 -216 -1z"/>
<path d="M2920 695 c-7 -8 -27 -15 -45 -15 -18 0 -38 -7 -45 -15 -7 -8 -18
-15 -25 -15 -8 0 -24 -17 -37 -37 -22 -37 -23 -45 -23 -263 0 -218 1 -226 23
-262 13 -21 29 -38 37 -38 7 0 18 -7 25 -15 7 -9 29 -15 51 -15 22 0 39 -4 39
-10 0 -13 187 -13 195 0 3 6 22 10 41 10 33 0 44 7 106 68 l28 27 0 235 0 236
-30 29 c-56 56 -70 65 -105 65 -22 0 -38 6 -41 15 -5 12 -25 15 -94 15 -66 0
-91 -4 -100 -15z m125 -345 l0 -235 -26 -3 c-42 -5 -49 27 -49 238 0 211 7
243 49 238 l26 -3 0 -235z"/>
<path d="M3676 695 c-3 -10 -19 -15 -44 -15 -23 0 -45 -6 -52 -15 -7 -8 -18
-15 -24 -15 -7 0 -23 -15 -37 -32 -24 -33 -24 -35 -24 -263 0 -212 2 -233 20
-263 25 -42 76 -72 121 -72 19 0 34 -4 34 -10 0 -6 40 -10 99 -10 56 0 103 4
106 10 3 6 21 10 39 10 19 0 39 7 46 15 7 8 18 15 24 15 28 1 54 48 70 132 10
48 15 92 11 98 -10 15 -235 13 -236 -2 0 -7 0 -37 1 -66 2 -66 -19 -102 -58
-102 -44 0 -52 39 -52 240 0 198 9 240 50 240 46 0 55 -14 57 -92 1 -40 2 -77
3 -81 0 -4 53 -6 118 -5 115 3 117 3 120 27 5 35 -29 172 -48 190 -28 29 -69
51 -92 51 -13 0 -36 7 -52 15 -40 21 -192 21 -200 0z"/>
<path d="M4250 355 l0 -355 110 0 110 0 0 142 0 141 25 -23 c15 -14 25 -35 25
-51 0 -14 7 -32 15 -39 8 -7 15 -22 15 -34 0 -11 7 -30 15 -40 8 -11 15 -30
15 -41 0 -44 28 -55 138 -55 91 0 102 2 102 18 0 9 -7 26 -15 36 -8 11 -15 28
-15 37 0 17 -6 31 -44 107 -9 19 -16 41 -16 50 0 9 -7 26 -15 36 -8 11 -15 30
-15 42 0 12 -7 27 -15 34 -8 7 -15 23 -15 35 0 12 7 28 15 35 8 7 15 20 15 29
0 9 7 25 15 35 8 11 15 27 15 37 0 9 7 22 15 29 8 7 15 20 15 30 0 10 7 23 15
30 8 7 15 21 15 31 0 10 8 22 18 28 36 20 -3 32 -99 29 -88 -3 -94 -4 -97 -25
-2 -12 -10 -27 -18 -33 -8 -7 -14 -20 -14 -30 0 -10 -7 -23 -15 -30 -8 -7 -15
-20 -15 -30 0 -10 -7 -23 -15 -30 -8 -7 -15 -20 -15 -30 0 -10 -11 -25 -25
-34 l-24 -16 -3 127 -3 128 -107 3 -108 3 0 -356z"/>
</g>
</svg>
