<?xml version="1.0" standalone="no"?>
<!DOCTYPE svg PUBLIC "-//W3C//DTD SVG 20010904//EN"
 "http://www.w3.org/TR/2001/REC-SVG-20010904/DTD/svg10.dtd">
<svg version="1.0" xmlns="http://www.w3.org/2000/svg"
 width="300.000000pt" height="300.000000pt" viewBox="0 0 300.000000 300.000000"
 preserveAspectRatio="xMidYMid meet">
<metadata>
Created by potrace 1.10, written by Peter Selinger 2001-2011
</metadata>
<g transform="translate(0.000000,300.000000) scale(0.050000,-0.050000)"
fill="#000000" stroke="none">
<path d="M3100 5933 c0 -74 12 -66 -280 -192 -283 -122 -582 -376 -788 -668
-137 -195 -170 -257 -221 -413 -26 -82 -72 -215 -100 -295 -107 -298 -102
-725 12 -1032 34 -90 74 -208 91 -263 17 -55 61 -155 98 -222 150 -269 180
-224 -873 -1318 -292 -304 -520 -541 -749 -781 -142 -148 -192 -189 -235 -189
-54 0 -55 -3 -55 -120 l0 -120 63 0 c100 0 277 -161 277 -252 l0 -68 130 0
c130 0 130 0 130 57 0 42 28 86 105 165 206 213 631 656 1005 1049 681 715
735 767 805 791 90 29 221 -4 341 -86 160 -110 342 -155 834 -207 275 -29 872
71 1040 175 55 34 168 96 250 139 233 120 634 528 725 737 155 359 156 360
228 360 l67 0 0 690 0 690 -70 0 c-76 0 -125 71 -198 290 -18 55 -62 138 -97
183 -36 46 -102 132 -147 190 -141 182 -457 432 -630 498 -255 98 -328 144
-334 214 l-7 65 -708 0 -709 0 0 -67z m1116 -674 c140 -33 279 -76 308 -95
168 -109 393 -298 441 -368 30 -45 84 -118 121 -164 191 -239 261 -755 158
-1177 -43 -173 -56 -199 -217 -427 -91 -130 -359 -377 -455 -419 -34 -15 -147
-64 -250 -109 -600 -263 -1405 4 -1756 582 -45 76 -101 163 -123 193 -114 162
-156 780 -68 1025 167 467 588 858 1035 959 110 25 209 48 220 52 85 26 358 3
586 -52z"/>
</g>
</svg>
