<?xml version="1.0" encoding="UTF-8" standalone="no"?>
<!DOCTYPE svg PUBLIC "-//W3C//DTD SVG 20010904//EN" "http://www.w3.org/TR/2001/REC-SVG-20010904/DTD/svg10.dtd">
<svg version="1.0" xmlns="http://www.w3.org/2000/svg" width="133.000000pt" height="137.000000pt" viewBox="0 0 133.000000 137.000000" preserveAspectRatio="xMidYMid meet">
<metadata>
Created by potrace 1.10, written by Peter Selinger 2001-2011
</metadata>
<g transform="translate(0.000000,137.000000) scale(0.050000,-0.050000)" fill="#000000" stroke="none">
<path d="M460 1817 c-226 -463 -410 -850 -410 -860 0 -11 373 -202 830 -425 l830 -406 165 332 c91 183 281 567 423 854 l257 523 -830 407 c-456 225 -835 410 -842 413 -7 2 -197 -375 -423 -838z m1172 272 c373 -182 676 -337 674 -345 -13 -50 -670 -1374 -682 -1374 -8 1 -194 90 -414 198 -220 108 -519 254 -665 325 -146 70 -265 134 -265 142 0 8 120 258 266 555 147 297 297 605 333 685 37 80 69 145 71 145 3 0 309 -149 682 -331z"/>
</g>
</svg>